<svg width="182" height="78" viewBox="0 0 182 78" fill="none" xmlns="http://www.w3.org/2000/svg">
<rect width="182" height="78" fill="#535353"/>
<g id="Services">
<rect width="1440" height="3982.83" transform="translate(-1158.33 -1989.99)" fill="#F8F8F8"/>
<g id="Frame 52303">
<g id="Logos" clip-path="url(#clip0_2895_8392)">
<rect width="1240" height="784.874" transform="translate(-1058.33 -201.995)" fill="#F8F8F8"/>
<g id="Frame 1028950046">
<g id="Frame 4">
<g id="List">
<g id="Listitem">
<g id="636b98e6cdb4eb7b35663fae_sage.svg">
<g id="636b98e6cdb4eb7b35663fae_sage.svg_2">
<g id="Vector">
<path d="M115.787 31.0811H108.021V15.1179H100.52L84.8037 37.0085H101.422V46.9387H108.001L107.989 37.0085L111.531 37.0013L115.784 31.0811H115.787ZM96.1752 31.0811L101.424 23.7458V31.0811H96.1752Z" fill="#1F1F1F"/>
<path d="M131.107 46.9387H109.368L123.094 27.8231C123.798 26.7924 124.129 26.1845 124.129 25.1081C124.129 24.1855 123.824 23.3085 123.251 22.5733C122.112 21.1149 120.879 21.0404 119.286 21.0404H112.064V15.1179H120.398C122.028 15.1179 125.396 15.3942 128.167 18.9405C129.56 20.7233 130.297 22.8568 130.297 25.1057C130.297 27.8568 129.226 30.1105 128.223 31.5809L121 41.0161H131.107V46.9387Z" fill="#1F1F1F"/>
<path d="M98.0166 41.014H81.9327L77.6747 46.9389H89.8247C89.097 48.1763 88.3837 49.0557 86.945 50.4684C83.7316 53.6255 79.1593 55.2857 74.6402 55.2857C72.2296 55.2857 69.8939 54.7884 67.754 53.8393C65.885 53.0128 64.1683 51.8427 62.6788 50.3627C60.0941 47.7943 58.4499 44.5435 57.9155 41.0188C57.7898 40.185 57.7245 39.3369 57.7245 38.4767C57.7245 33.9862 59.4848 29.7647 62.6788 26.5908C65.8729 23.4169 70.1212 21.6677 74.6402 21.6677C76.8139 21.6677 78.9248 22.0714 80.8857 22.845C83.0014 23.6788 84.9623 24.8777 87.0127 27.0137L90.8983 21.5981C86.6766 17.5808 80.951 15.1133 74.6427 15.1133C61.6585 15.1133 51.1309 25.5745 51.1309 38.4767C51.1309 39.3345 51.1792 40.1826 51.2687 41.0188C52.1343 48.9788 57.0233 55.7374 63.8733 59.2501C67.0988 60.9056 70.7619 61.8402 74.6427 61.8402C86.7637 61.8402 96.74 52.7245 98.0166 41.0188H98.0118L98.0166 41.014Z" fill="#1F1F1F"/>
</g>
</g>
</g>
</g>
</g>
</g>
</g>
</g>
</g>
</g>
<defs>
<clipPath id="clip0_2895_8392">
<rect width="1240" height="784.874" fill="white" transform="translate(-1058.33 -201.995)"/>
</clipPath>
</defs>
</svg>
